<svg width="393" height="852" viewBox="0 0 393 852" fill="none" xmlns="http://www.w3.org/2000/svg">
<g clip-path="url(#clip0_5064_924)">
<rect width="393" height="852" fill="#131521"/>
<g clip-path="url(#clip1_5064_924)">
<circle cx="326.5" cy="771.5" r="1.5" transform="rotate(90 326.5 771.5)" fill="white" fill-opacity="0.8"/>
<circle cx="288.5" cy="815.5" r="1.5" transform="rotate(90 288.5 815.5)" fill="white" fill-opacity="0.8"/>
<circle opacity="0.5" cx="127.5" cy="815.5" r="1.5" transform="rotate(90 127.5 815.5)" fill="white"/>
<circle cx="59.5" cy="631.5" r="1.5" transform="rotate(90 59.5 631.5)" fill="white" fill-opacity="0.8"/>
<circle opacity="0.5" cx="53.5" cy="657.5" r="1.5" transform="rotate(90 53.5 657.5)" fill="white"/>
<circle opacity="0.2" cx="291.5" cy="801.5" r="1.5" transform="rotate(90 291.5 801.5)" fill="white"/>
<circle opacity="0.2" cx="216.5" cy="137.5" r="1.5" transform="rotate(90 216.5 137.5)" fill="white"/>
<circle opacity="0.2" cx="110.5" cy="41.5" r="1.5" transform="rotate(90 110.5 41.5)" fill="white"/>
<circle opacity="0.3" cx="183.5" cy="656.5" r="1.5" transform="rotate(90 183.5 656.5)" fill="white"/>
<circle cx="215.5" cy="705.5" r="0.5" transform="rotate(90 215.5 705.5)" fill="white"/>
<circle cx="43.5" cy="754.5" r="1.5" transform="rotate(90 43.5 754.5)" fill="white" fill-opacity="0.8"/>
<circle opacity="0.2" cx="86.5" cy="762.5" r="1.5" transform="rotate(90 86.5 762.5)" fill="white"/>
<circle opacity="0.3" cx="143" cy="719" r="1" transform="rotate(90 143 719)" fill="white"/>
<circle opacity="0.2" cx="335.5" cy="109.5" r="1.5" transform="rotate(90 335.5 109.5)" fill="white"/>
<circle cx="218.5" cy="79.5" r="1.5" transform="rotate(90 218.5 79.5)" fill="white" fill-opacity="0.8"/>
<circle opacity="0.2" cx="195.501" cy="350.5" r="1.5" transform="rotate(90 195.501 350.5)" fill="white"/>
<circle opacity="0.2" cx="89.5" cy="254.5" r="1.5" transform="rotate(90 89.5 254.5)" fill="white"/>
<circle cx="314.501" cy="322.5" r="1.5" transform="rotate(90 314.501 322.5)" fill="white" fill-opacity="0.8"/>
<circle opacity="0.2" cx="298.5" cy="386.5" r="1.5" transform="rotate(90 298.5 386.5)" fill="white"/>
<circle opacity="0.2" cx="165.5" cy="201.5" r="1.5" transform="rotate(90 165.5 201.5)" fill="white"/>
<circle cx="24.5" cy="226.5" r="1.5" transform="rotate(90 24.5 226.5)" fill="white" fill-opacity="0.8"/>
<circle cx="85.5" cy="111.5" r="1.5" transform="rotate(90 85.5 111.5)" fill="white" fill-opacity="0.8"/>
<circle cx="338.5" cy="190.5" r="1.5" transform="rotate(90 338.5 190.5)" fill="white" fill-opacity="0.8"/>
<circle cx="215.5" cy="186.5" r="1.5" transform="rotate(90 215.5 186.5)" fill="white" fill-opacity="0.8"/>
<circle cx="170.5" cy="35.5" r="1.5" transform="rotate(90 170.5 35.5)" fill="white" fill-opacity="0.8"/>
<circle cx="330.5" cy="19.5" r="1.5" transform="rotate(90 330.5 19.5)" fill="white" fill-opacity="0.8"/>
<circle opacity="0.2" cx="371.5" cy="183.5" r="1.5" transform="rotate(90 371.5 183.5)" fill="white"/>
<circle cx="367.5" cy="694.5" r="1.5" transform="rotate(90 367.5 694.5)" fill="white" fill-opacity="0.8"/>
<circle cx="152.5" cy="721.5" r="1.5" transform="rotate(90 152.5 721.5)" fill="white" fill-opacity="0.8"/>
<circle opacity="0.2" cx="271.501" cy="144.5" r="1.5" transform="rotate(90 271.501 144.5)" fill="white"/>
<circle cx="378.5" cy="838.824" r="1.5" transform="rotate(90 378.5 838.824)" fill="white"/>
<circle cx="89.5" cy="835.5" r="1.5" transform="rotate(90 89.5 835.5)" fill="white" fill-opacity="0.8"/>
<circle cx="194.5" cy="554.824" r="1.5" transform="rotate(90 194.5 554.824)" fill="white" fill-opacity="0.8"/>
<circle cx="56.5" cy="376.5" r="1.5" transform="rotate(90 56.5 376.5)" fill="white" fill-opacity="0.8"/>
<circle cx="143.5" cy="298.5" r="1.5" transform="rotate(90 143.5 298.5)" fill="white" fill-opacity="0.8"/>
<circle cx="346.5" cy="505.5" r="1.5" transform="rotate(90 346.5 505.5)" fill="white" fill-opacity="0.8"/>
<circle cx="196.5" cy="496.824" r="1.5" transform="rotate(90 196.5 496.824)" fill="white" fill-opacity="0.8"/>
<circle cx="34.5" cy="551.5" r="1.5" transform="rotate(90 34.5 551.5)" fill="white" fill-opacity="0.8"/>
<circle opacity="0.2" cx="63.5" cy="528.824" r="1.5" transform="rotate(90 63.5 528.824)" fill="white"/>
<circle opacity="0.2" cx="316.5" cy="607.824" r="1.5" transform="rotate(90 316.5 607.824)" fill="white"/>
<circle opacity="0.2" cx="187.5" cy="578.824" r="1.5" transform="rotate(90 187.5 578.824)" fill="white"/>
<circle cx="140.5" cy="418.824" r="1.5" transform="rotate(90 140.5 418.824)" fill="white" fill-opacity="0.8"/>
<circle cx="308.5" cy="436.824" r="1.5" transform="rotate(90 308.5 436.824)" fill="white" fill-opacity="0.8"/>
<circle cx="379.5" cy="479.824" r="1.5" transform="rotate(90 379.5 479.824)" fill="white" fill-opacity="0.8"/>
<circle cx="349.5" cy="600.824" r="1.5" transform="rotate(90 349.5 600.824)" fill="white" fill-opacity="0.8"/>
<circle cx="371.5" cy="718.5" r="1.5" transform="rotate(90 371.5 718.5)" fill="white" fill-opacity="0.8"/>
<circle opacity="0.2" cx="369.5" cy="621.5" r="1.5" transform="rotate(90 369.5 621.5)" fill="white"/>
</g>
</g>
<defs>
<clipPath id="clip0_5064_924">
<rect width="393" height="852" fill="white"/>
</clipPath>
<clipPath id="clip1_5064_924">
<rect width="852" height="395" fill="white" transform="translate(394) rotate(90)"/>
</clipPath>
</defs>
</svg>
